<?xml version="1.0" encoding="iso-8859-1"?>
<!-- Generator: Adobe Illustrator 23.0.1, SVG Export Plug-In . SVG Version: 6.00 Build 0)  -->
<svg version="1.1" id="Livello_1" xmlns="http://www.w3.org/2000/svg" xmlns:xlink="http://www.w3.org/1999/xlink" x="0px" y="0px"
	 viewBox="0 0 330.919 255.789" style="enable-background:new 0 0 330.919 255.789;" xml:space="preserve">
<g>
	<g>
		<g>
			<defs>
				<rect id="SVGID_1_" x="60.541" y="24.789" width="230" height="230"/>
			</defs>
			<clipPath id="SVGID_2_">
				<use xlink:href="#SVGID_1_"  style="overflow:visible;"/>
			</clipPath>
			<rect x="60.541" y="232.887" style="clip-path:url(#SVGID_2_);fill:#0095D6;" width="230" height="21.902"/>
			<rect x="60.541" y="231.702" style="clip-path:url(#SVGID_2_);fill:#0095D6;" width="230" height="1.185"/>
			<rect x="60.541" y="230.517" style="clip-path:url(#SVGID_2_);fill:#0097D7;" width="230" height="1.185"/>
			<rect x="60.541" y="229.333" style="clip-path:url(#SVGID_2_);fill:#0098D8;" width="230" height="1.185"/>
			<rect x="60.541" y="228.148" style="clip-path:url(#SVGID_2_);fill:#0099D9;" width="230" height="1.185"/>
			<rect x="60.541" y="226.963" style="clip-path:url(#SVGID_2_);fill:#009BD9;" width="230" height="1.185"/>
			<rect x="60.541" y="225.779" style="clip-path:url(#SVGID_2_);fill:#009CDA;" width="230" height="1.185"/>
			<rect x="60.541" y="224.594" style="clip-path:url(#SVGID_2_);fill:#009DDA;" width="230" height="1.185"/>
			<rect x="60.541" y="223.409" style="clip-path:url(#SVGID_2_);fill:#009EDB;" width="230" height="1.185"/>
			<rect x="60.541" y="222.225" style="clip-path:url(#SVGID_2_);fill:#009FDC;" width="230" height="1.185"/>
			<rect x="60.541" y="221.04" style="clip-path:url(#SVGID_2_);fill:#00A1DC;" width="230" height="1.185"/>
			<rect x="60.541" y="219.855" style="clip-path:url(#SVGID_2_);fill:#00A3DD;" width="230" height="1.185"/>
			<rect x="60.541" y="218.671" style="clip-path:url(#SVGID_2_);fill:#00A4DE;" width="230" height="1.185"/>
			<rect x="60.541" y="217.486" style="clip-path:url(#SVGID_2_);fill:#00A5DE;" width="230" height="1.185"/>
			<rect x="60.541" y="216.301" style="clip-path:url(#SVGID_2_);fill:#16A6DF;" width="230" height="1.185"/>
			<rect x="60.541" y="215.117" style="clip-path:url(#SVGID_2_);fill:#1FA8DF;" width="230" height="1.185"/>
			<rect x="60.541" y="213.932" style="clip-path:url(#SVGID_2_);fill:#2AA9E0;" width="230" height="1.185"/>
			<rect x="60.541" y="212.747" style="clip-path:url(#SVGID_2_);fill:#33AAE0;" width="230" height="1.185"/>
			<rect x="60.541" y="211.563" style="clip-path:url(#SVGID_2_);fill:#3BABE1;" width="230" height="1.185"/>
			<rect x="60.541" y="210.378" style="clip-path:url(#SVGID_2_);fill:#41ADE1;" width="230" height="1.185"/>
			<rect x="60.541" y="209.193" style="clip-path:url(#SVGID_2_);fill:#47AEE2;" width="230" height="1.185"/>
			<rect x="60.541" y="208.009" style="clip-path:url(#SVGID_2_);fill:#4BAFE2;" width="230" height="1.185"/>
			<rect x="60.541" y="206.824" style="clip-path:url(#SVGID_2_);fill:#50B1E3;" width="230" height="1.185"/>
			<rect x="60.541" y="205.639" style="clip-path:url(#SVGID_2_);fill:#56B2E3;" width="230" height="1.185"/>
			<rect x="60.541" y="204.455" style="clip-path:url(#SVGID_2_);fill:#59B3E4;" width="230" height="1.185"/>
			<rect x="60.541" y="203.27" style="clip-path:url(#SVGID_2_);fill:#5EB4E4;" width="230" height="1.185"/>
			<rect x="60.541" y="202.085" style="clip-path:url(#SVGID_2_);fill:#61B5E5;" width="230" height="1.185"/>
			<rect x="60.541" y="200.901" style="clip-path:url(#SVGID_2_);fill:#65B6E5;" width="230" height="1.185"/>
			<rect x="60.541" y="199.716" style="clip-path:url(#SVGID_2_);fill:#6AB8E7;" width="230" height="1.185"/>
			<rect x="60.541" y="198.531" style="clip-path:url(#SVGID_2_);fill:#6DB9E7;" width="230" height="1.185"/>
			<rect x="60.541" y="197.346" style="clip-path:url(#SVGID_2_);fill:#6FBAE7;" width="230" height="1.185"/>
			<rect x="60.541" y="196.162" style="clip-path:url(#SVGID_2_);fill:#74BBE8;" width="230" height="1.185"/>
			<rect x="60.541" y="194.977" style="clip-path:url(#SVGID_2_);fill:#77BCE8;" width="230" height="1.185"/>
			<rect x="60.541" y="193.792" style="clip-path:url(#SVGID_2_);fill:#7ABEE9;" width="230" height="1.185"/>
			<rect x="60.541" y="192.608" style="clip-path:url(#SVGID_2_);fill:#7DBEE9;" width="230" height="1.185"/>
			<rect x="60.541" y="191.423" style="clip-path:url(#SVGID_2_);fill:#80C0EA;" width="230" height="1.185"/>
			<rect x="60.541" y="190.238" style="clip-path:url(#SVGID_2_);fill:#82C1EA;" width="230" height="1.185"/>
			<rect x="60.541" y="189.054" style="clip-path:url(#SVGID_2_);fill:#85C2EA;" width="230" height="1.185"/>
			<rect x="60.541" y="187.869" style="clip-path:url(#SVGID_2_);fill:#87C3EB;" width="230" height="1.185"/>
			<rect x="60.541" y="186.684" style="clip-path:url(#SVGID_2_);fill:#89C4EB;" width="230" height="1.185"/>
			<rect x="60.541" y="185.5" style="clip-path:url(#SVGID_2_);fill:#8DC5EC;" width="230" height="1.185"/>
			<rect x="60.541" y="184.315" style="clip-path:url(#SVGID_2_);fill:#8FC6EC;" width="230" height="1.185"/>
			<rect x="60.541" y="183.13" style="clip-path:url(#SVGID_2_);fill:#91C7EC;" width="230" height="1.185"/>
			<rect x="60.541" y="181.946" style="clip-path:url(#SVGID_2_);fill:#93C8ED;" width="230" height="1.185"/>
			<rect x="60.541" y="180.761" style="clip-path:url(#SVGID_2_);fill:#96C9ED;" width="230" height="1.185"/>
			<rect x="60.541" y="179.576" style="clip-path:url(#SVGID_2_);fill:#98CAED;" width="230" height="1.185"/>
			<rect x="60.541" y="178.392" style="clip-path:url(#SVGID_2_);fill:#9ACBEE;" width="230" height="1.185"/>
			<rect x="60.541" y="177.207" style="clip-path:url(#SVGID_2_);fill:#9CCCEE;" width="230" height="1.185"/>
			<rect x="60.541" y="176.022" style="clip-path:url(#SVGID_2_);fill:#9ECDEE;" width="230" height="1.185"/>
			<rect x="60.541" y="174.838" style="clip-path:url(#SVGID_2_);fill:#A0CEEF;" width="230" height="1.185"/>
			<rect x="60.541" y="173.653" style="clip-path:url(#SVGID_2_);fill:#A2CFEF;" width="230" height="1.185"/>
			<rect x="60.541" y="172.468" style="clip-path:url(#SVGID_2_);fill:#A5CFEF;" width="230" height="1.185"/>
			<rect x="60.541" y="171.284" style="clip-path:url(#SVGID_2_);fill:#A7D1F0;" width="230" height="1.185"/>
			<rect x="60.541" y="170.099" style="clip-path:url(#SVGID_2_);fill:#A8D1F0;" width="230" height="1.185"/>
			<rect x="60.541" y="168.914" style="clip-path:url(#SVGID_2_);fill:#AAD2F0;" width="230" height="1.185"/>
			<rect x="60.541" y="167.73" style="clip-path:url(#SVGID_2_);fill:#ACD3F1;" width="230" height="1.185"/>
			<rect x="60.541" y="166.545" style="clip-path:url(#SVGID_2_);fill:#AED4F1;" width="230" height="1.185"/>
			<rect x="60.541" y="165.36" style="clip-path:url(#SVGID_2_);fill:#B0D5F1;" width="230" height="1.185"/>
			<rect x="60.541" y="164.176" style="clip-path:url(#SVGID_2_);fill:#B1D6F2;" width="230" height="1.185"/>
			<rect x="60.541" y="162.991" style="clip-path:url(#SVGID_2_);fill:#B3D6F2;" width="230" height="1.185"/>
			<rect x="60.541" y="161.806" style="clip-path:url(#SVGID_2_);fill:#B5D7F2;" width="230" height="1.185"/>
			<rect x="60.541" y="160.622" style="clip-path:url(#SVGID_2_);fill:#B6D8F2;" width="230" height="1.185"/>
			<rect x="60.541" y="159.437" style="clip-path:url(#SVGID_2_);fill:#B8D9F3;" width="230" height="1.185"/>
			<rect x="60.541" y="158.252" style="clip-path:url(#SVGID_2_);fill:#BADAF3;" width="230" height="1.185"/>
			<rect x="60.541" y="157.068" style="clip-path:url(#SVGID_2_);fill:#BBDAF3;" width="230" height="1.185"/>
			<rect x="60.541" y="155.883" style="clip-path:url(#SVGID_2_);fill:#BDDBF4;" width="230" height="1.185"/>
			<rect x="60.541" y="154.698" style="clip-path:url(#SVGID_2_);fill:#BEDCF4;" width="230" height="1.185"/>
			<rect x="60.541" y="153.514" style="clip-path:url(#SVGID_2_);fill:#C0DCF4;" width="230" height="1.185"/>
			<rect x="60.541" y="152.329" style="clip-path:url(#SVGID_2_);fill:#C1DDF5;" width="230" height="1.185"/>
			<rect x="60.541" y="151.144" style="clip-path:url(#SVGID_2_);fill:#C3DEF5;" width="230" height="1.185"/>
			<rect x="60.541" y="149.96" style="clip-path:url(#SVGID_2_);fill:#C4DEF5;" width="230" height="1.185"/>
			<rect x="60.541" y="148.775" style="clip-path:url(#SVGID_2_);fill:#C6E0F6;" width="230" height="1.185"/>
			<rect x="60.541" y="147.59" style="clip-path:url(#SVGID_2_);fill:#C6E0F6;" width="230" height="1.185"/>
			<rect x="60.541" y="146.406" style="clip-path:url(#SVGID_2_);fill:#C7E0F6;" width="230" height="1.185"/>
			<rect x="60.541" y="145.221" style="clip-path:url(#SVGID_2_);fill:#C9E1F6;" width="230" height="1.185"/>
			<rect x="60.541" y="144.036" style="clip-path:url(#SVGID_2_);fill:#CAE2F6;" width="230" height="1.185"/>
			<rect x="60.541" y="142.852" style="clip-path:url(#SVGID_2_);fill:#CBE2F6;" width="230" height="1.185"/>
			<rect x="60.541" y="141.667" style="clip-path:url(#SVGID_2_);fill:#CDE3F7;" width="230" height="1.185"/>
			<rect x="60.541" y="140.482" style="clip-path:url(#SVGID_2_);fill:#CDE3F7;" width="230" height="1.185"/>
			<rect x="60.541" y="139.297" style="clip-path:url(#SVGID_2_);fill:#CEE4F7;" width="230" height="1.185"/>
			<rect x="60.541" y="138.113" style="clip-path:url(#SVGID_2_);fill:#D0E5F7;" width="230" height="1.185"/>
			<rect x="60.541" y="136.928" style="clip-path:url(#SVGID_2_);fill:#D1E5F7;" width="230" height="1.185"/>
			<rect x="60.541" y="135.743" style="clip-path:url(#SVGID_2_);fill:#D2E6F7;" width="230" height="1.185"/>
			<rect x="60.541" y="134.559" style="clip-path:url(#SVGID_2_);fill:#D3E7F8;" width="230" height="1.185"/>
			<rect x="60.541" y="133.374" style="clip-path:url(#SVGID_2_);fill:#D4E7F8;" width="230" height="1.185"/>
			<rect x="60.541" y="132.189" style="clip-path:url(#SVGID_2_);fill:#D5E8F8;" width="230" height="1.185"/>
			<rect x="60.541" y="131.005" style="clip-path:url(#SVGID_2_);fill:#D6E8F8;" width="230" height="1.185"/>
			<rect x="60.541" y="129.82" style="clip-path:url(#SVGID_2_);fill:#D7E9F8;" width="230" height="1.185"/>
			<rect x="60.541" y="128.635" style="clip-path:url(#SVGID_2_);fill:#D8EAF9;" width="230" height="1.185"/>
			<rect x="60.541" y="127.451" style="clip-path:url(#SVGID_2_);fill:#D9EAF9;" width="230" height="1.185"/>
			<rect x="60.541" y="126.266" style="clip-path:url(#SVGID_2_);fill:#DAEAF9;" width="230" height="1.185"/>
			<rect x="60.541" y="125.081" style="clip-path:url(#SVGID_2_);fill:#DBEBF9;" width="230" height="1.185"/>
			<rect x="60.541" y="123.897" style="clip-path:url(#SVGID_2_);fill:#DCECF9;" width="230" height="1.185"/>
			<rect x="60.541" y="122.712" style="clip-path:url(#SVGID_2_);fill:#DDECFA;" width="230" height="1.185"/>
			<rect x="60.541" y="121.527" style="clip-path:url(#SVGID_2_);fill:#DDECFA;" width="230" height="1.185"/>
			<rect x="60.541" y="120.343" style="clip-path:url(#SVGID_2_);fill:#DEEDFA;" width="230" height="1.185"/>
			<rect x="60.541" y="119.158" style="clip-path:url(#SVGID_2_);fill:#DFEDFA;" width="230" height="1.185"/>
			<rect x="60.541" y="117.973" style="clip-path:url(#SVGID_2_);fill:#E0EDFA;" width="230" height="1.185"/>
			<rect x="60.541" y="116.789" style="clip-path:url(#SVGID_2_);fill:#E1EEFA;" width="230" height="1.185"/>
			<rect x="60.541" y="115.604" style="clip-path:url(#SVGID_2_);fill:#E2EFFA;" width="230" height="1.185"/>
			<rect x="60.541" y="114.419" style="clip-path:url(#SVGID_2_);fill:#E3EFFA;" width="230" height="1.185"/>
			<rect x="60.541" y="113.235" style="clip-path:url(#SVGID_2_);fill:#E3F0FB;" width="230" height="1.185"/>
			<rect x="60.541" y="112.05" style="clip-path:url(#SVGID_2_);fill:#E3F0FB;" width="230" height="1.185"/>
			<rect x="60.541" y="110.865" style="clip-path:url(#SVGID_2_);fill:#E4F0FB;" width="230" height="1.185"/>
			<rect x="60.541" y="109.681" style="clip-path:url(#SVGID_2_);fill:#E5F1FB;" width="230" height="1.185"/>
			<rect x="60.541" y="108.496" style="clip-path:url(#SVGID_2_);fill:#E6F1FB;" width="230" height="1.185"/>
			<rect x="60.541" y="107.311" style="clip-path:url(#SVGID_2_);fill:#E7F2FB;" width="230" height="1.185"/>
			<rect x="60.541" y="106.127" style="clip-path:url(#SVGID_2_);fill:#E7F2FB;" width="230" height="1.185"/>
			<rect x="60.541" y="104.942" style="clip-path:url(#SVGID_2_);fill:#E8F2FB;" width="230" height="1.185"/>
			<rect x="60.541" y="103.757" style="clip-path:url(#SVGID_2_);fill:#E8F2FB;" width="230" height="1.185"/>
			<rect x="60.541" y="102.573" style="clip-path:url(#SVGID_2_);fill:#E9F3FC;" width="230" height="1.185"/>
			<rect x="60.541" y="101.388" style="clip-path:url(#SVGID_2_);fill:#E9F3FC;" width="230" height="1.185"/>
			<rect x="60.541" y="100.203" style="clip-path:url(#SVGID_2_);fill:#EAF4FC;" width="230" height="1.185"/>
			<rect x="60.541" y="99.019" style="clip-path:url(#SVGID_2_);fill:#EBF4FC;" width="230" height="1.185"/>
			<rect x="60.541" y="97.834" style="clip-path:url(#SVGID_2_);fill:#ECF4FC;" width="230" height="1.185"/>
			<rect x="60.541" y="96.649" style="clip-path:url(#SVGID_2_);fill:#ECF4FC;" width="230" height="1.185"/>
			<rect x="60.541" y="95.465" style="clip-path:url(#SVGID_2_);fill:#EDF5FC;" width="230" height="1.185"/>
			<rect x="60.541" y="94.28" style="clip-path:url(#SVGID_2_);fill:#EDF5FC;" width="230" height="1.185"/>
			<rect x="60.541" y="93.095" style="clip-path:url(#SVGID_2_);fill:#EEF6FC;" width="230" height="1.185"/>
			<rect x="60.541" y="91.911" style="clip-path:url(#SVGID_2_);fill:#EEF6FC;" width="230" height="1.185"/>
			<rect x="60.541" y="90.726" style="clip-path:url(#SVGID_2_);fill:#EEF6FC;" width="230" height="1.185"/>
			<rect x="60.541" y="89.541" style="clip-path:url(#SVGID_2_);fill:#EFF6FC;" width="230" height="1.185"/>
			<rect x="60.541" y="88.356" style="clip-path:url(#SVGID_2_);fill:#EFF6FC;" width="230" height="1.185"/>
			<rect x="60.541" y="87.172" style="clip-path:url(#SVGID_2_);fill:#F0F7FC;" width="230" height="1.185"/>
			<rect x="60.541" y="85.987" style="clip-path:url(#SVGID_2_);fill:#F1F7FC;" width="230" height="1.185"/>
			<rect x="60.541" y="84.802" style="clip-path:url(#SVGID_2_);fill:#F1F7FC;" width="230" height="1.185"/>
			<rect x="60.541" y="83.618" style="clip-path:url(#SVGID_2_);fill:#F2F7FD;" width="230" height="1.185"/>
			<rect x="60.541" y="82.433" style="clip-path:url(#SVGID_2_);fill:#F2F8FD;" width="230" height="1.185"/>
			<rect x="60.541" y="81.248" style="clip-path:url(#SVGID_2_);fill:#F3F8FD;" width="230" height="1.185"/>
			<rect x="60.541" y="80.064" style="clip-path:url(#SVGID_2_);fill:#F3F8FD;" width="230" height="1.185"/>
			<rect x="60.541" y="78.879" style="clip-path:url(#SVGID_2_);fill:#F3F9FD;" width="230" height="1.185"/>
			<rect x="60.541" y="77.694" style="clip-path:url(#SVGID_2_);fill:#F3F9FD;" width="230" height="1.185"/>
			<rect x="60.541" y="76.51" style="clip-path:url(#SVGID_2_);fill:#F4F9FD;" width="230" height="1.185"/>
			<rect x="60.541" y="75.325" style="clip-path:url(#SVGID_2_);fill:#F4F9FD;" width="230" height="1.185"/>
			<rect x="60.541" y="74.14" style="clip-path:url(#SVGID_2_);fill:#F4F9FD;" width="230" height="1.185"/>
			<rect x="60.541" y="72.956" style="clip-path:url(#SVGID_2_);fill:#F5F9FD;" width="230" height="1.185"/>
			<rect x="60.541" y="71.771" style="clip-path:url(#SVGID_2_);fill:#F5F9FD;" width="230" height="1.185"/>
			<rect x="60.541" y="70.586" style="clip-path:url(#SVGID_2_);fill:#F6FAFD;" width="230" height="1.185"/>
			<rect x="60.541" y="69.402" style="clip-path:url(#SVGID_2_);fill:#F6FAFD;" width="230" height="1.185"/>
			<rect x="60.541" y="68.217" style="clip-path:url(#SVGID_2_);fill:#F6FAFD;" width="230" height="1.185"/>
			<rect x="60.541" y="67.032" style="clip-path:url(#SVGID_2_);fill:#F7FAFD;" width="230" height="1.185"/>
			<rect x="60.541" y="65.848" style="clip-path:url(#SVGID_2_);fill:#F7FAFD;" width="230" height="1.185"/>
			<rect x="60.541" y="64.663" style="clip-path:url(#SVGID_2_);fill:#F8FBFD;" width="230" height="1.185"/>
			<rect x="60.541" y="63.478" style="clip-path:url(#SVGID_2_);fill:#F8FBFD;" width="230" height="1.185"/>
			<rect x="60.541" y="62.294" style="clip-path:url(#SVGID_2_);fill:#F8FBFD;" width="230" height="1.185"/>
			<rect x="60.541" y="61.109" style="clip-path:url(#SVGID_2_);fill:#F9FBFD;" width="230" height="1.185"/>
			<rect x="60.541" y="59.924" style="clip-path:url(#SVGID_2_);fill:#F9FBFD;" width="230" height="1.185"/>
			<rect x="60.541" y="58.74" style="clip-path:url(#SVGID_2_);fill:#F9FBFD;" width="230" height="1.185"/>
			<rect x="60.541" y="57.555" style="clip-path:url(#SVGID_2_);fill:#F9FBFD;" width="230" height="1.185"/>
			<rect x="60.541" y="56.37" style="clip-path:url(#SVGID_2_);fill:#F9FCFD;" width="230" height="1.185"/>
			<rect x="60.541" y="55.186" style="clip-path:url(#SVGID_2_);fill:#F9FCFD;" width="230" height="1.185"/>
			<rect x="60.541" y="54.001" style="clip-path:url(#SVGID_2_);fill:#F9FCFD;" width="230" height="1.185"/>
			<rect x="60.541" y="52.816" style="clip-path:url(#SVGID_2_);fill:#FAFCFF;" width="230" height="1.185"/>
			<rect x="60.541" y="51.632" style="clip-path:url(#SVGID_2_);fill:#FAFCFF;" width="230" height="1.185"/>
			<rect x="60.541" y="50.447" style="clip-path:url(#SVGID_2_);fill:#FAFCFF;" width="230" height="1.185"/>
			<rect x="60.541" y="49.262" style="clip-path:url(#SVGID_2_);fill:#FAFCFF;" width="230" height="1.185"/>
			<rect x="60.541" y="48.078" style="clip-path:url(#SVGID_2_);fill:#FBFDFF;" width="230" height="1.185"/>
			<rect x="60.541" y="46.893" style="clip-path:url(#SVGID_2_);fill:#FBFDFF;" width="230" height="1.185"/>
			<rect x="60.541" y="45.708" style="clip-path:url(#SVGID_2_);fill:#FBFDFF;" width="230" height="1.185"/>
			<rect x="60.541" y="44.524" style="clip-path:url(#SVGID_2_);fill:#FBFDFF;" width="230" height="1.185"/>
			<rect x="60.541" y="43.339" style="clip-path:url(#SVGID_2_);fill:#FBFDFF;" width="230" height="1.185"/>
			<rect x="60.541" y="42.154" style="clip-path:url(#SVGID_2_);fill:#FCFDFF;" width="230" height="1.185"/>
			<rect x="60.541" y="40.97" style="clip-path:url(#SVGID_2_);fill:#FCFDFF;" width="230" height="1.185"/>
			<rect x="60.541" y="39.785" style="clip-path:url(#SVGID_2_);fill:#FCFDFF;" width="230" height="1.185"/>
			<rect x="60.541" y="38.6" style="clip-path:url(#SVGID_2_);fill:#FCFDFF;" width="230" height="1.185"/>
			<rect x="60.541" y="37.416" style="clip-path:url(#SVGID_2_);fill:#FCFDFF;" width="230" height="1.185"/>
			<rect x="60.541" y="36.231" style="clip-path:url(#SVGID_2_);fill:#FCFDFF;" width="230" height="1.185"/>
			<rect x="60.541" y="35.046" style="clip-path:url(#SVGID_2_);fill:#FDFDFF;" width="230" height="1.185"/>
			<rect x="60.541" y="33.861" style="clip-path:url(#SVGID_2_);fill:#FDFDFF;" width="230" height="1.185"/>
			<rect x="60.541" y="32.677" style="clip-path:url(#SVGID_2_);fill:#FDFDFF;" width="230" height="1.185"/>
			<rect x="60.541" y="31.492" style="clip-path:url(#SVGID_2_);fill:#FDFDFF;" width="230" height="1.185"/>
			<rect x="60.541" y="30.307" style="clip-path:url(#SVGID_2_);fill:#FDFDFF;" width="230" height="1.185"/>
			<rect x="60.541" y="29.123" style="clip-path:url(#SVGID_2_);fill:#FDFDFF;" width="230" height="1.185"/>
			<rect x="60.541" y="27.938" style="clip-path:url(#SVGID_2_);fill:#FDFDFF;" width="230" height="1.185"/>
			<rect x="60.541" y="26.753" style="clip-path:url(#SVGID_2_);fill:#FDFFFF;" width="230" height="1.185"/>
			<rect x="60.541" y="25.569" style="clip-path:url(#SVGID_2_);fill:#FDFFFF;" width="230" height="1.185"/>
			<rect x="60.541" y="24.789" style="clip-path:url(#SVGID_2_);fill:#FDFFFF;" width="230" height="0.78"/>
		</g>
		<path style="fill:#929191;" d="M291.541,255.789h-232v-232h232V255.789z M61.541,253.789h228v-228h-228V253.789z"/>
	</g>
	<g>
		<g>
			<path style="fill:#2A55A1;" d="M23.83,118.988c15.961,17.326,34.947,31.87,57.814,38.601c18.895,5.562,38.858,5.71,58.301,3.637
				c40.252-4.292,79.83-17.795,120.653-15.713c21.911,1.117,43.606,8.21,59.743,21.987c1.562,1.333,7.75,6.582,9.058,2.795
				c1.221-3.535-6.658-10.507-8.66-12.216c-16.437-14.033-35.696-24.286-57.065-28.165c-19.473-3.535-39.232-2.498-58.738,0.236
				c-39.114,5.483-78.73,18.414-118.59,13.66c-10.065-1.201-20.215-3.788-29.393-8.146c-4.828-2.292-9.1-4.828-13.35-7.891
				c-3.609-2.601-7.65-6.249-10.352-9.182c-2.22-2.41-8.274-9.811-12.216-8.66C17.227,111.042,22.731,117.795,23.83,118.988
				L23.83,118.988z"/>
		</g>
	</g>
	<g>
		<g>
			<path style="fill:#EC8022;" d="M143.941,99.389c10.252,8.736,21.929,15.379,35.223,18.054c11.773,2.368,23.841,1.92,35.692,0.416
				c23.548-2.988,48.024-11.055,71.874-6.473c6.27,1.204,12.366,3.34,17.94,6.468c1.503,0.844,2.957,1.759,4.36,2.762
				c0.381,0.272,3.65,3.112,1.643,1.114c-1.787-1.778-1.047-1.074-0.082,0.244c1.431,1.955,2.848,3.9,4.195,5.916
				c2.987,4.472,7.301,8.369,11.305,11.914c0.906,0.802,6.712,5.635,4.205,1.883c-10.219-15.298-24.106-30.361-40.05-39.792
				c-10.769-6.37-23.089-8.8-35.5-8.721c-26.454,0.169-51.965,9.87-78.509,8.915c-15.761-0.567-31.003-5.596-43.096-15.901
				c0.173,0.148-2.649-2.321-3.085-1.885c-0.433,0.433,2.025,3.262,1.885,3.085C135.434,91.796,139.669,95.749,143.941,99.389
				L143.941,99.389z"/>
		</g>
	</g>
	<g>
		<g>
			<path style="fill:#2C55A1;" d="M112.133,86.832c2.049,6.28,4.84,16.515-2.284,20.761c-6.461,3.851-16.029,1.269-22.72-0.439
				c-21.734-5.55-41.994-15.753-63.712-21.345c-6.548-1.686-17.663-4.921-23.362,0.495c-1.134,1.077,15.513,18.356,16.971,16.971
				c5.056-4.804,14.286-2.568,20.224-1.165c10.936,2.584,21.513,6.656,32.04,10.53c10.655,3.922,21.311,8.007,32.29,10.947
				c7.122,1.907,16.743,4.667,23.94,1.622c8.81-3.727,5.686-15.543,3.429-22.463c-1.333-4.087-6.815-8.168-9.845-11.031
				c-1.545-1.459-3.494-3.922-5.461-4.681C113.28,86.894,111.713,85.545,112.133,86.832L112.133,86.832z"/>
		</g>
	</g>
	<g>
		<g>
			<path style="fill:#2B54A1;" d="M141.883,43.164c-5.703,3.333-10.455,8.548-10.438,15.509c0.018,7.498,5.375,13.243,10.225,18.376
				c6.198,6.56,13.344,13.93,22.463,16.069c5.39,1.264,11.496,1.545,16.858,0.004c20.58-5.914,15.483-34.535,10.712-49.635
				c-3.399-10.759-8.426-21.202-15.679-29.906c-3.592-4.31-7.591-8.515-12-12c-2.829-2.236-4.14-2.327-1.2,1.2
				c0.278,0.334,0.568,0.663,0.828,1.011c-0.085-0.114-0.629-0.827-0.119-0.133c0.5,0.68,0.983,1.375,1.447,2.081
				c1.01,1.536,1.92,3.13,2.786,4.751c2.027,3.794,3.774,7.739,5.285,11.766c3.23,8.608,5.573,17.769,5.858,26.993
				c0.225,7.282-0.795,15.421-5.717,21.153c-5.738,6.682-15.425,7.688-23.633,6.185c-1.725-0.316-3.435-0.802-5.064-1.451
				c-0.568-0.226-1.119-0.549-1.691-0.755c-0.522-0.242-1.029-0.512-1.523-0.809c3.074,3.12,6.148,6.24,9.222,9.361
				c-0.687-2.78-2.174-4.674-2.087-7.778c0.19-6.747,4.903-11.785,10.439-15.02c0.83-0.485-7.001-8.698-7.637-9.334
				C150.211,49.795,143.533,42.2,141.883,43.164L141.883,43.164z"/>
		</g>
	</g>
	<g>
		<path style="fill:#FFFFFF;" d="M80.159,203.735v47.458H65.751v-47.458H80.159z"/>
		<path style="fill:#FFFFFF;" d="M146.896,217.572h-14.074c-0.075-0.44-0.111-0.765-0.111-0.974
			c-0.333-2.665-1.279-4.34-2.837-5.024c-1.558-0.683-5.229-1.025-11.014-1.025c-6.824,0-11.284,0.394-13.378,1.182
			c-2.096,0.788-3.143,2.445-3.143,4.972c0,2.99,0.853,4.787,2.559,5.389c1.706,0.603,7.343,1.066,16.911,1.391
			c11.311,0.394,18.626,1.402,21.945,3.024c3.318,1.623,4.979,4.995,4.979,10.118c0,6.305-1.947,10.378-5.841,12.221
			s-12.48,2.764-25.756,2.764c-11.942,0-19.869-0.904-23.781-2.711c-3.913-1.808-5.869-5.47-5.869-10.987l-0.056-1.738h14.018
			l0.056,1.008c0,3.315,0.926,5.343,2.781,6.084c1.854,0.742,6.916,1.112,15.187,1.112c6.453,0,10.569-0.429,12.35-1.286
			c1.78-0.857,2.67-2.839,2.67-5.945c0-2.295-0.677-3.819-2.03-4.572c-1.354-0.753-4.275-1.211-8.762-1.373l-7.955-0.313
			c-12.016-0.44-19.692-1.483-23.03-3.129c-3.338-1.646-5.007-5.181-5.007-10.604c0-5.539,2.011-9.23,6.036-11.073
			c4.023-1.843,12.062-2.764,24.115-2.764c11.422,0,19.117,0.847,23.085,2.538c3.968,1.692,5.953,4.995,5.953,9.909V217.572z"/>
		<path style="fill:#FFFFFF;" d="M201.617,242.083h-32.765l-4.729,9.109h-15.242l25.255-47.458h21.639l25.645,47.458h-14.964
			L201.617,242.083z M198.28,235.443l-13.128-24.72l-12.906,24.72H198.28z"/>
		<path style="fill:#FFFFFF;" d="M271.803,234.261h14.463v1.634c0,6.606-1.929,10.877-5.785,12.812
			c-3.857,1.936-12.387,2.903-25.589,2.903c-14.983,0-24.198-1.53-27.647-4.589c-3.449-3.06-5.173-11.242-5.173-24.546
			c0-7.834,2.336-12.986,7.009-15.454c4.673-2.469,14.444-3.703,29.316-3.703c10.828,0,18.06,1.015,21.695,3.042
			c3.634,2.028,5.451,6.055,5.451,12.082l0.056,1.078h-14.464v-1.217c0-3.105-0.937-5.093-2.809-5.962
			c-1.873-0.869-6.147-1.304-12.822-1.304c-8.938,0-14.306,0.684-16.104,2.051c-1.799,1.368-2.698,5.423-2.698,12.168
			c0,9.086,0.807,14.463,2.42,16.132c1.613,1.668,6.833,2.503,15.659,2.503c7.157,0,11.802-0.463,13.936-1.391
			c2.132-0.927,3.198-2.967,3.198-6.119L271.803,234.261z"/>
	</g>
</g>
</svg>
